<?xml version="1.0" standalone="no"?>
<svg version="1.0" xmlns="http://www.w3.org/2000/svg"
 width="700.000000pt" height="700.000000pt" viewBox="0 0 700.000000 700.000000"
 preserveAspectRatio="xMidYMid meet">
<g transform="translate(0.000000,700.000000) scale(0.100000,-0.100000)"
fill="#000000" stroke="none">
<path d="M3100 6966 c-696 -89 -1311 -353 -1830 -785 -105 -87 -326 -307 -429
-426 -352 -408 -619 -939 -736 -1464 -77 -346 -80 -376 -80 -791 0 -407 6
-470 71 -758 103 -460 311 -922 582 -1293 156 -213 390 -462 588 -628 545
-455 1170 -713 1929 -796 660 -72 1457 106 2061 460 459 270 872 661 1159
1100 278 425 439 842 532 1381 27 155 28 169 28 534 0 340 -2 387 -23 508
-139 835 -496 1507 -1100 2065 -134 125 -343 286 -482 372 -429 265 -827 415
-1330 501 -143 24 -182 27 -495 30 -243 2 -370 -1 -445 -10z m-960 -1197 c80
-12 183 -65 250 -128 57 -53 62 -74 23 -89 -266 -96 -305 -116 -415 -214 -192
-173 -343 -443 -433 -779 -65 -244 -140 -709 -157 -976 -11 -177 -10 -184 11
-250 12 -38 24 -74 27 -81 3 -9 21 2 56 32 53 46 68 54 68 36 0 -5 7 -10 15
-10 8 0 15 4 15 8 0 5 17 37 38 73 21 35 68 115 105 176 37 62 67 122 67 134
0 12 15 38 34 59 40 45 166 296 201 402 14 42 25 92 25 111 0 20 7 40 17 48 9
8 42 68 74 134 57 120 297 697 336 810 47 134 65 204 58 226 -7 21 -6 22 46
16 54 -5 161 -37 209 -62 68 -36 157 -179 205 -334 20 -64 49 -154 65 -201 35
-105 37 -115 55 -385 23 -326 31 -757 16 -825 -7 -30 -19 -125 -26 -210 -19
-209 -49 -429 -80 -580 -14 -69 -34 -175 -45 -236 -21 -115 -127 -510 -182
-674 -32 -97 -128 -298 -204 -427 -23 -39 -45 -81 -49 -92 -8 -25 -176 -198
-233 -239 -138 -99 -442 -4 -582 181 -37 49 -70 138 -90 243 -19 98 -8 108 25
24 19 -50 44 -91 75 -125 25 -27 61 -69 79 -92 41 -54 64 -55 128 -5 59 47
161 156 201 214 78 114 231 435 327 682 68 179 183 623 215 831 11 77 27 174
35 215 34 181 70 703 70 1005 -1 252 -11 361 -50 533 -26 114 -42 118 -76 21
-22 -62 -25 -65 -42 -51 -11 9 -19 3 -40 -29 -15 -22 -27 -48 -27 -57 0 -9
-12 -29 -27 -44 -21 -22 -24 -31 -15 -40 9 -9 8 -16 -4 -29 -9 -10 -28 -57
-43 -106 -20 -66 -32 -90 -49 -98 -12 -5 -20 -14 -18 -20 2 -5 -4 -18 -12 -28
-13 -15 -14 -20 -3 -26 11 -7 11 -19 2 -60 -6 -29 -11 -69 -11 -89 0 -51 -64
-203 -95 -225 -19 -14 -25 -28 -25 -56 0 -21 -12 -69 -26 -107 -14 -38 -39
-109 -55 -157 -16 -49 -45 -121 -63 -160 -89 -187 -126 -271 -126 -284 0 -7
-26 -68 -59 -136 -46 -97 -69 -132 -110 -170 -66 -62 -107 -78 -208 -85 l-81
-5 -89 48 c-48 26 -110 64 -136 83 -90 65 -203 227 -269 387 l-33 80 1 215 c0
118 6 258 12 310 6 52 18 163 27 245 23 220 71 447 136 631 44 126 207 456
268 541 33 47 83 98 144 147 50 41 126 102 167 135 l75 61 110 -6 c61 -3 139
-10 175 -15z m3652 -1406 c56 -32 68 -76 118 -413 64 -440 73 -684 41 -1075
-19 -229 -30 -322 -70 -568 -20 -117 -112 -254 -207 -306 -21 -12 -55 -32 -74
-44 -31 -20 -48 -22 -155 -21 l-120 1 -100 51 c-55 29 -110 65 -123 80 -71 83
-102 126 -102 140 0 11 17 -1 45 -33 45 -51 60 -55 26 -7 -42 60 -86 163 -166
389 -111 316 -110 313 -135 364 -27 54 -26 53 -40 44 -7 -4 -4 -16 10 -35 13
-19 18 -37 15 -56 -3 -16 1 -54 10 -84 9 -30 21 -90 25 -133 11 -89 67 -242
154 -415 59 -117 62 -143 8 -68 -56 77 -120 225 -201 459 -43 126 -82 231 -85
234 -14 14 -15 -7 -3 -55 12 -46 12 -53 -4 -69 -24 -25 -66 -297 -49 -318 9
-11 9 -22 1 -47 -7 -18 -14 -67 -17 -108 -4 -41 -13 -113 -20 -160 -8 -47 -19
-132 -24 -190 -16 -179 -65 -317 -155 -439 -24 -33 -63 -72 -85 -87 -41 -27
-41 -27 -185 -21 -98 4 -155 11 -175 21 -16 8 -43 17 -58 21 -40 8 -92 65
-103 111 -18 80 -70 457 -90 659 -26 264 -37 911 -20 1175 17 262 40 480 56
525 8 22 15 54 17 70 4 41 58 67 154 73 87 5 165 -12 205 -45 29 -25 30 -26
23 -102 -3 -42 -21 -147 -40 -233 -40 -184 -54 -348 -54 -673 0 -460 42 -1035
88 -1200 8 -29 9 -29 20 -9 6 11 22 62 37 114 48 172 77 209 56 71 -6 -39 -11
-80 -11 -93 0 -22 1 -22 28 7 15 16 33 50 40 75 21 75 82 373 82 401 0 14 7
45 15 70 8 24 26 136 40 249 14 113 28 220 31 238 7 45 25 30 19 -16 -3 -20
-25 -181 -49 -357 -42 -299 -52 -403 -48 -482 2 -35 17 -44 26 -15 18 57 89
468 101 591 9 80 22 191 30 246 21 146 19 186 -9 228 -13 19 -27 50 -31 68 -8
37 -41 79 -62 79 -16 0 -16 -1 -57 -253 -18 -114 -36 -210 -40 -214 -17 -18
-15 18 9 159 15 84 31 185 36 223 16 118 44 209 61 199 5 -3 7 -17 3 -31 -6
-24 -4 -25 27 -20 18 3 53 12 76 21 35 13 63 15 133 10 88 -7 90 -8 118 -43
99 -126 152 -240 286 -624 47 -137 99 -282 115 -324 30 -79 94 -184 133 -221
22 -20 24 -21 46 -6 38 27 100 132 125 214 31 96 73 311 81 410 3 41 12 223
21 403 15 331 9 521 -18 571 -6 10 -16 73 -24 140 -18 157 -27 196 -82 345
-52 139 -51 146 19 174 61 24 233 18 281 -10z m-3747 -142 c3 -5 1 -12 -5 -16
-5 -3 -10 1 -10 9 0 18 6 21 15 7z m2455 -1225 c0 -8 -4 -18 -10 -21 -5 -3
-10 3 -10 14 0 12 5 21 10 21 6 0 10 -6 10 -14z m-2610 -162 c0 -8 -4 -12 -10
-9 -5 3 -10 10 -10 16 0 5 5 9 10 9 6 0 10 -7 10 -16z m2420 -366 c0 -18 -2
-20 -9 -8 -6 8 -7 18 -5 22 9 14 14 9 14 -14z m-25 -164 c-3 -19 -10 -34 -14
-34 -5 0 -5 19 0 43 4 23 9 47 10 52 1 6 3 2 6 -8 3 -11 2 -34 -2 -53z m785
-236 c0 -13 -23 -5 -28 10 -2 7 2 10 12 6 9 -3 16 -11 16 -16z"/>
<path d="M2565 5088 c-63 -144 -128 -300 -405 -978 -141 -344 -151 -370 -144
-370 14 0 121 249 393 911 177 431 234 579 228 586 -2 2 -35 -65 -72 -149z"/>
<path d="M2547 5183 c-9 -21 -34 -80 -57 -131 -22 -51 -44 -110 -48 -129 -10
-47 -28 -53 -37 -12 -6 25 -9 29 -16 17 -19 -35 -168 -412 -164 -416 2 -3 13
6 24 19 28 33 28 6 0 -55 -11 -27 -19 -62 -17 -82 3 -31 13 -12 82 153 44 103
92 226 108 272 15 46 32 89 37 95 12 14 106 243 115 279 10 40 -8 33 -27 -10z
m-198 -449 c-14 -18 -24 -11 -15 11 3 9 11 13 16 10 8 -5 7 -11 -1 -21z"/>
<path d="M2182 4387 c-10 -12 -52 -103 -52 -113 0 -2 7 -4 16 -4 24 0 14 -52
-12 -65 -12 -6 -28 -16 -36 -23 -16 -12 -66 -148 -58 -155 3 -3 16 -8 28 -12
21 -6 23 -4 18 13 -4 11 -2 23 4 27 7 4 9 19 5 36 -6 26 -4 29 15 27 19 -3 28
11 65 94 24 53 46 107 50 120 8 23 7 23 -13 4 -19 -16 -22 -17 -28 -3 -3 8 0
25 6 37 13 25 8 37 -8 17z"/>
<path d="M2350 4326 c-13 -34 -13 -89 -1 -81 12 7 26 93 17 102 -3 3 -10 -6
-16 -21z"/>
<path d="M2017 3988 c-8 -28 -4 -32 28 -24 22 6 24 9 15 26 -14 27 -36 25 -43
-2z"/>
<path d="M1985 3908 c-8 -13 -15 -28 -15 -34 0 -6 -9 -33 -21 -59 -11 -25 -18
-50 -14 -53 9 -9 22 13 46 80 12 32 25 55 30 52 4 -2 4 -17 -2 -31 -10 -27
-10 -27 10 -8 26 23 27 47 1 62 -16 11 -21 9 -35 -9z"/>
<path d="M2847 2759 c-22 -67 -43 -186 -35 -195 16 -15 26 13 43 115 20 125
17 158 -8 80z"/>
<path d="M2788 2460 c-9 -25 -59 -169 -111 -321 -53 -152 -116 -326 -141 -387
-25 -61 -46 -114 -46 -118 0 -4 9 1 19 10 24 22 135 270 194 436 51 142 110
368 105 402 -3 19 -7 14 -20 -22z"/>
<path d="M3777 3533 c-4 -7 -15 -58 -24 -115 -14 -86 -17 -180 -18 -573 0
-494 5 -585 56 -940 21 -149 70 -371 76 -344 2 9 -9 113 -26 230 -16 118 -34
264 -40 324 -31 314 -40 876 -20 1217 11 185 10 224 -4 201z"/>
</g>
</svg>
