<?xml version="1.0" standalone="no"?>
<svg version="1.0" xmlns="http://www.w3.org/2000/svg"
 width="804.000000pt" height="804.000000pt" viewBox="0 0 804.000000 804.000000"
 preserveAspectRatio="xMidYMid meet">
<g transform="translate(0.000000,804.000000) scale(0.100000,-0.100000)"
fill="#000000" stroke="none">
<path d="M3770 8019 c-951 -58 -1854 -458 -2539 -1124 -991 -965 -1409 -2320
-1136 -3681 151 -746 514 -1432 1050 -1983 346 -356 691 -605 1138 -821 780
-378 1663 -489 2522 -319 1583 314 2830 1561 3144 3144 155 783 74 1602 -230
2329 -407 970 -1185 1748 -2155 2155 -559 234 -1179 338 -1794 300z m-774
-2250 c52 -20 152 -88 167 -115 12 -21 1 -44 -20 -44 -10 0 -65 -20 -123 -43
-160 -65 -249 -144 -367 -324 -70 -106 -87 -143 -157 -343 -62 -175 -141 -645
-153 -905 -5 -110 -3 -135 11 -162 9 -18 16 -41 16 -52 0 -34 16 -32 64 10 32
28 46 36 46 25 0 -27 17 -18 37 19 52 98 119 214 140 242 12 17 23 42 23 55 0
15 11 33 30 46 17 13 30 28 30 34 0 6 22 55 49 107 58 113 104 244 96 275 -2
11 -2 15 1 9 9 -21 27 -15 21 7 -3 11 -2 20 3 20 15 0 302 690 335 805 10 33
21 69 26 80 5 11 8 29 6 40 -2 17 3 19 43 16 25 -1 50 -6 55 -11 6 -4 26 -11
45 -15 34 -7 91 -41 98 -57 2 -5 20 -32 39 -60 45 -65 76 -141 104 -254 12
-49 28 -96 36 -105 16 -19 18 -38 38 -334 18 -279 21 -588 5 -635 -6 -19 -13
-75 -16 -125 -5 -97 -38 -362 -54 -435 -31 -142 -41 -194 -55 -273 -8 -48 -30
-138 -48 -200 -19 -61 -40 -137 -47 -167 -7 -30 -23 -82 -35 -115 -13 -33 -27
-71 -31 -85 -7 -27 -103 -218 -156 -313 -39 -69 -145 -187 -206 -229 -56 -39
-127 -47 -207 -23 -124 36 -226 104 -271 181 -30 52 -66 177 -61 214 2 20 6
15 16 -23 9 -29 29 -64 55 -92 22 -24 58 -63 78 -85 l37 -42 31 19 c18 10 66
54 109 98 85 89 147 189 235 381 105 231 159 379 201 554 14 58 34 137 44 177
11 39 29 136 40 215 12 78 25 157 30 173 5 17 16 127 25 245 9 118 22 279 28
357 17 215 -4 497 -47 651 -17 56 -30 65 -44 30 -5 -13 -15 -37 -22 -55 -9
-21 -17 -29 -24 -23 -14 12 -55 -40 -55 -69 0 -11 -10 -27 -21 -35 -16 -11
-20 -21 -15 -40 5 -19 3 -26 -9 -26 -8 0 -15 -8 -15 -18 0 -33 -41 -141 -53
-139 -7 1 -12 -5 -12 -14 0 -9 -8 -24 -18 -33 -22 -22 -23 -43 0 -25 15 13 16
11 9 -11 -4 -14 -10 -52 -13 -85 -3 -33 -13 -76 -23 -95 -9 -19 -20 -47 -24
-62 -3 -15 -15 -30 -26 -33 -22 -7 -36 -45 -26 -71 3 -9 0 -28 -8 -42 -24 -46
-56 -130 -56 -148 0 -9 -12 -42 -26 -73 -28 -62 -47 -103 -93 -202 -17 -37
-31 -72 -31 -78 0 -22 -88 -197 -115 -229 -15 -18 -47 -44 -71 -58 -37 -22
-56 -26 -114 -25 -61 1 -81 6 -148 40 -98 49 -158 103 -218 193 -124 189 -143
296 -108 633 8 83 19 195 24 250 10 123 60 345 107 480 45 129 170 374 228
448 46 58 177 169 247 210 21 12 38 28 38 34 0 20 232 5 296 -18z m2875 -1115
c29 -14 33 -25 58 -139 35 -158 87 -635 84 -770 -2 -108 -43 -542 -58 -605 -8
-36 -14 -82 -15 -102 0 -50 -33 -133 -75 -190 -31 -42 -62 -66 -168 -125 -44
-25 -247 -11 -247 17 0 5 -25 18 -55 29 -56 21 -101 61 -139 125 -13 22 -5 17
27 -19 53 -58 61 -50 16 15 -53 79 -76 132 -145 336 -75 222 -98 281 -121 306
-22 25 -37 11 -19 -18 9 -13 16 -36 16 -52 0 -53 13 -122 21 -116 5 3 9 -16 9
-43 0 -63 54 -215 119 -339 34 -65 44 -91 30 -78 -36 32 -116 210 -175 389
-31 94 -60 177 -64 185 -15 27 -23 -16 -11 -52 10 -27 9 -35 -4 -44 -8 -6 -15
-23 -15 -37 0 -14 -7 -57 -15 -95 -8 -39 -14 -99 -13 -135 0 -35 -2 -68 -5
-73 -3 -6 -8 -48 -11 -94 -7 -90 -15 -149 -24 -164 -3 -6 -5 -31 -3 -56 6
-114 -73 -313 -161 -404 l-47 -49 -132 6 c-72 4 -137 11 -144 17 -7 6 -23 13
-36 15 -39 8 -77 54 -88 106 -22 102 -61 402 -76 589 -35 422 -10 1195 41
1292 8 14 13 36 12 49 -6 49 140 75 235 43 26 -9 52 -24 57 -34 11 -20 -2
-139 -25 -240 -31 -132 -35 -169 -44 -385 -16 -377 26 -1055 71 -1138 10 -19
11 -19 20 -3 5 9 20 54 32 100 25 88 52 149 42 91 -3 -16 -8 -59 -12 -95 -5
-60 -4 -63 10 -45 8 11 21 27 28 35 7 8 13 17 13 20 1 3 8 34 18 70 19 75 46
210 58 288 7 50 19 83 19 51 -1 -28 -39 -305 -46 -328 -5 -17 -4 -22 4 -17 7
4 12 17 12 29 1 19 3 18 15 -8 7 -16 14 -28 14 -24 1 3 19 97 40 210 21 112
42 240 45 284 4 44 11 107 16 140 29 189 31 216 14 251 -9 19 -20 34 -25 34
-5 0 -9 12 -9 27 0 28 -34 73 -56 73 -14 0 -17 -11 -44 -185 -25 -161 -31
-188 -36 -182 -6 5 63 424 72 438 3 5 10 9 16 9 7 0 7 -4 -1 -13 -26 -32 30
-36 86 -7 35 17 45 18 111 8 64 -10 77 -16 97 -42 79 -104 123 -206 249 -576
62 -181 84 -233 126 -295 28 -41 57 -75 64 -75 17 0 70 58 92 101 79 154 118
479 118 992 0 187 -2 210 -17 218 -12 7 -17 23 -17 58 0 82 -29 222 -65 312
-38 95 -41 111 -22 127 40 33 199 37 258 6z m-1044 -1086 c-3 -8 -6 -5 -6 6
-1 11 2 17 5 13 3 -3 4 -12 1 -19z m-22 -173 c-14 -88 -14 -88 -9 -20 6 81 17
147 21 125 1 -8 -4 -55 -12 -105z m-2065 35 c0 -5 -2 -10 -4 -10 -3 0 -8 5
-11 10 -3 6 -1 10 4 10 6 0 11 -4 11 -10z m2044 -199 c-4 -34 -9 -60 -11 -57
-3 3 -2 32 2 66 4 34 9 59 12 57 2 -3 1 -33 -3 -66z m-107 -103 c-3 -7 -5 -2
-5 12 0 14 2 19 5 13 2 -7 2 -19 0 -25z m90 -10 c-3 -7 -5 -2 -5 12 0 14 2 19
5 13 2 -7 2 -19 0 -25z m-110 -110 c-3 -7 -5 -2 -5 12 0 14 2 19 5 13 2 -7 2
-19 0 -25z"/>
<path d="M3259 5414 c-18 -40 -20 -68 -3 -52 8 9 34 98 28 98 -3 0 -14 -21
-25 -46z"/>
<path d="M3294 5285 c-31 -66 -72 -157 -91 -204 -19 -47 -38 -88 -41 -91 -10
-10 10 56 28 92 21 40 110 253 110 263 0 3 -6 5 -14 5 -13 0 -46 -56 -46 -78
0 -6 -11 -32 -24 -59 -13 -26 -30 -67 -37 -90 -14 -49 -29 -57 -29 -16 0 16
-4 23 -9 18 -17 -18 -152 -369 -148 -385 2 -9 11 0 21 24 9 21 20 36 22 33 3
-3 -2 -21 -10 -39 -9 -19 -20 -54 -24 -78 -4 -24 -13 -45 -20 -48 -8 -2 -10 5
-6 27 13 63 -15 29 -46 -56 -17 -48 -35 -92 -39 -98 -14 -18 -64 -166 -58
-171 11 -11 48 8 43 22 -3 8 1 14 10 14 11 0 15 6 11 20 -3 11 -2 20 3 20 13
0 65 110 135 283 37 92 69 166 71 164 4 -4 -54 -151 -159 -407 -31 -74 -79
-191 -107 -259 -28 -68 -49 -128 -47 -134 5 -17 153 309 247 546 48 122 111
276 140 342 83 193 181 447 176 453 -3 3 -31 -48 -62 -113z m-184 -325 c0 -5
-5 -10 -11 -10 -5 0 -7 5 -4 10 3 6 8 10 11 10 2 0 4 -4 4 -10z m11 -77 c-12
-20 -14 -14 -5 12 4 9 9 14 11 11 3 -2 0 -13 -6 -23z m-175 -338 c-3 -8 -10
-15 -15 -15 -7 0 -6 10 1 26 12 26 25 16 14 -11z m-36 -95 c0 -5 -2 -10 -4
-10 -3 0 -8 5 -11 10 -3 6 -1 10 4 10 6 0 11 -4 11 -10z"/>
<path d="M3193 5248 c-5 -7 -17 -33 -27 -56 -12 -32 -13 -43 -4 -40 7 3 21 26
31 53 18 48 18 66 0 43z"/>
<path d="M3352 5215 c-14 -31 -16 -63 -3 -49 9 10 25 74 18 74 -2 0 -9 -11
-15 -25z"/>
<path d="M3100 4621 c-14 -43 -6 -89 10 -60 14 25 24 99 13 99 -5 0 -16 -18
-23 -39z"/>
<path d="M2812 4298 c-7 -7 -12 -18 -12 -25 0 -8 -7 -28 -16 -45 -9 -18 -20
-46 -25 -62 l-8 -31 24 28 c13 15 29 45 35 67 6 22 13 40 16 40 3 0 2 -10 -1
-21 -11 -33 18 -18 30 15 7 21 6 29 -5 36 -20 13 -24 12 -38 -2z"/>
<path d="M3510 3405 c-32 -77 -50 -210 -28 -203 14 5 21 29 39 134 13 81 8
115 -11 69z"/>
<path d="M3461 3151 c-6 -10 -42 -110 -80 -222 -97 -285 -116 -336 -145 -398
-13 -30 -22 -59 -19 -64 10 -16 50 42 74 108 13 33 28 69 35 80 19 31 84 210
115 318 41 140 51 237 20 178z"/>
<path d="M4250 4006 c-29 -77 -35 -180 -35 -581 0 -335 3 -437 18 -560 24
-196 53 -367 74 -435 27 -90 27 -28 -1 162 -14 95 -31 220 -36 278 -16 154
-23 788 -12 985 5 94 8 172 6 174 -2 2 -8 -8 -14 -23z"/>
<path d="M4310 3020 c0 -5 5 -10 10 -10 6 0 10 5 10 10 0 6 -4 10 -10 10 -5 0
-10 -4 -10 -10z"/>
<path d="M4350 2703 c0 -13 5 -23 10 -23 13 0 13 11 0 30 -8 12 -10 11 -10 -7z"/>
</g>
</svg>
