<svg version="1.2" xmlns="http://www.w3.org/2000/svg" viewBox="0 0 1196 878" width="598" height="439"><style>.s0{fill:#302a40}</style><path fill-rule="evenodd" class="s0" d="m969 0.1c8 0 18.5 0.4 23.5 1c5 0.6 13.3 2.2 18.5 3.6c5.2 1.3 13.3 4.1 18 6c4.7 2 12.9 6.1 18.4 9.2c5.4 3.1 13.3 8.3 17.5 11.7c4.2 3.4 11.3 10.1 15.9 15c4.6 4.9 10.7 12.5 13.7 16.9c2.9 4.4 7.4 12.1 9.9 17c2.5 5 5.2 11 6.1 13.5c1 2.5 3 9.2 4.7 15c2.7 9.5 3 12.3 3.5 29.5c0.3 10.4 0.8 19.6 1.1 20.3c0.6 1.1 3.2 1.2 14.7 0.2c7.7-0.6 18.7-1.8 24.5-2.6c5.8-0.8 14-2.4 18.3-3.5c4.2-1 7.5-2.3 7.2-2.9c-0.3-0.6-3.8-1.7-7.7-2.5c-4-0.8-16.1-2.6-26.8-4c-10.7-1.4-21.2-3-23.2-3.5c-2.8-0.7-3.7-1.5-3.5-2.7c0.2-1.5 1.1-1.8 6.2-1.5c3.3 0.2 11.4 1 18 1.8c6.6 0.8 16.3 2.1 21.5 2.9c5.2 0.8 11.5 2.2 14 3c2.5 0.9 5.3 2.4 6.3 3.3c1 0.9 1.8 2.5 1.7 3.5c0 0.9-1 2.6-2.2 3.7c-1.3 1.2-4.5 2.8-7.3 3.6c-2.7 0.8-10 2.3-16 3.4c-6 1-18.7 2.6-28 3.4c-9.3 0.9-17.6 1.6-18.3 1.6c-0.6 0-1.2 1-1.2 2.3c0 1.2-1.1 6.7-2.5 12.2c-1.5 5.5-4.6 14.7-7 20.5c-2.5 5.8-6.6 14.1-9.1 18.5c-2.6 4.4-8.4 12.5-12.9 18c-4.5 5.5-10.8 12.4-14.1 15.4c-3.2 2.9-9.3 7.7-13.4 10.6c-4.1 2.9-10.7 7-14.5 9.2c-3.8 2.1-11.3 5.6-16.5 7.7c-5.2 2.1-14 4.9-19.5 6.2c-5.5 1.3-14.7 2.9-20.5 3.5c-5.9 0.7-14.9 0.9-20.5 0.5c-5.5-0.4-13.1-1.1-17-1.7c-3.9-0.6-12-2.6-18-4.5c-6-2-13.9-4.8-17.5-6.4c-3.6-1.6-9.9-4.7-14-7.1c-4.1-2.3-11.1-7-15.5-10.4c-4.4-3.5-10.9-9.2-14.4-12.6c-3.5-3.5-9.4-10.5-13.1-15.4c-3.8-4.9-9.3-13.7-12.4-19.5c-3-5.8-6.6-13.7-8-17.5c-1.3-3.8-3.3-10.6-4.4-15c-1.2-4.4-2.4-10.2-2.9-12.9c-0.4-2.6-1-5-1.3-5.1c-0.3-0.2-8.8-1.3-19-2.4c-10.2-1.2-22.8-2.8-28-3.6c-5.2-0.8-13.9-2.4-19.2-3.5c-5.4-1.1-11.9-3-14.4-4.2c-2.6-1.3-5.1-3.2-5.6-4.3c-0.6-1.1-0.8-2.9-0.5-4c0.3-1.1 1.8-2.6 3.4-3.2c1.5-0.7 5.7-1.9 9.3-2.7c3.6-0.8 11.2-2 17-2.6c5.8-0.6 19-1.7 29.5-2.4c10.6-0.7 20-0.9 21.3-0.4c1.2 0.4 2.2 1.2 2.2 1.8c0 0.6-1 1.4-2.2 1.9c-1.3 0.5-12.2 1.6-24.3 2.5c-12.1 0.9-26.7 2.3-32.5 3.2c-5.8 0.8-12.2 1.9-14.2 2.4c-2.1 0.6-3.6 1.3-3.4 1.8c0.2 0.4 3.9 1.7 8.2 2.9c4.4 1.2 13.3 3.1 19.9 4.3c6.6 1.1 19.9 2.9 29.5 4c9.6 1.1 18.7 2 23 2v-11.2c0-6.2 0.7-16 1.6-21.8c0.9-5.8 2.7-14.3 4-19c1.4-4.7 5.5-14.8 9.3-22.5c4.5-9.1 9.4-17.3 14.1-23.5c4-5.2 11-13.1 15.5-17.5c4.5-4.4 12.6-11 18.1-14.6c5.4-3.7 13.9-8.7 18.9-11.2c5-2.4 14.2-6.1 20.5-8c6.3-2 14.2-4.2 17.5-5c3.5-0.8 11.9-1.5 20.5-1.6zm-31.5 10.5c-5.5 1.4-14.3 4.4-19.5 6.8c-5.2 2.4-13.5 6.8-18.5 9.9c-5 3.1-13 9.2-18 13.5c-5 4.4-11.5 11-14.5 14.6c-3 3.7-7.2 9.3-9.3 12.4c-2.1 3.1-5.9 10-8.6 15.2c-2.7 5.2-6.2 13.8-7.9 19c-1.7 5.2-3.8 13.6-4.7 18.5c-1 5.2-1.8 14.8-1.8 22.5l-0.2 13.5c20.9 1.8 35.3 2.8 45.5 3.4c10.2 0.6 42.1 1.6 71 2.2c28.9 0.6 71 0.9 93.5 0.5c22.5-0.3 47.5-1 55.4-1.4l14.4-0.7c-1.1-32.3-1.7-38.2-3.7-46.5c-1.4-5.8-3.8-13.9-5.4-18c-1.6-4.1-4.2-10-5.7-13c-1.5-3-5.1-9.1-8-13.5c-2.8-4.4-8.3-11.8-12.2-16.5c-3.8-4.7-10.7-11.4-15.2-15c-4.5-3.6-12.6-9.2-17.9-12.5c-5.4-3.3-13.3-7.4-17.7-9.2c-4.4-1.7-11.8-4.3-16.5-5.6c-4.7-1.4-12-3-16.3-3.6c-4.2-0.6-15-1.1-23.9-1c-9 0.1-18.1 0.5-20.3 1.1c-2.2 0.5-8.5 2.1-14 3.4zm-101.5 156.9c0 0.9 1.2 1.7 3.3 2c1.7 0.2 13.8 1.1 26.7 2c12.9 0.8 34.5 1.9 48 2.5c13.5 0.6 44.5 1.3 69 1.7c28.1 0.4 59.2 0.1 84.5-0.7c22-0.6 40.9-1.6 42-2c1.1-0.4 2.2-1.9 2.5-3.4l0.5-2.7c-56.6 1.3-93 1.5-117.5 1.5c-24.5-0.1-59.1-0.7-77-1.3c-17.9-0.7-42.6-1.9-55-2.6c-12.4-0.8-23.8-1.5-25.4-1.5c-2.2 0-2.8 0.4-2.3 1.5c0.4 0.8 0.7 2.2 0.7 3zm4.8 19.5c2.1 6.3 6.4 16.4 9.5 22.5c3.1 6.1 7.8 13.9 10.4 17.5c2.6 3.6 6.4 8.5 8.3 10.9c1.9 2.4 7.1 7.5 11.5 11.3c4.4 3.9 11.6 9.5 16 12.4c4.4 2.9 12.7 7.5 18.5 10.3c5.8 2.7 14.5 6.1 19.5 7.6c5 1.4 13 3.2 18 4c5 0.8 13.6 1.5 19.3 1.5c5.6 0 14.6-0.5 19.9-1c5.4-0.6 13.8-2.2 18.8-3.5c5-1.3 12.8-4 17.5-6c4.7-2 11.4-5.3 15-7.3c3.6-2 10.1-6.4 14.5-9.6c4.4-3.3 11.8-9.9 16.5-14.7c4.7-4.7 11.1-12.2 14.2-16.5c3.1-4.3 7.7-11.7 10.2-16.4c2.4-4.7 5.8-12.1 7.4-16.5c1.6-4.4 3.1-9.1 3.5-10.5l0.6-2.5c-170.9 0-192.7-0.3-217.4-1.8c-16.5-0.9-35.7-2.1-42.8-2.5l-12.7-0.7zm349 466c1.4 0 1.7 0.7 1.4 3.2c-0.2 2.5 0.3 3.7 2 4.9c1.5 1.2 2 2.2 1.5 3.3c-0.5 1-2 1.6-4 1.6c-1.8 0-4 0.8-5 1.8c-1.1 1-2.3 1.4-3.3 0.9c-1-0.5-1.3-1.6-0.9-4c0.4-2.3 0.1-3.7-1.3-4.9c-1.1-1.1-1.5-2.4-1-3.3c0.5-1.1 1.5-1.3 3.8-0.8c2.5 0.6 3.3 0.4 4.1-1c0.5-0.9 1.7-1.7 2.7-1.7zm-671.4 195.1c2.8 0 6 0.5 7.2 1.2c1.2 0.7 3.1 2.3 4.1 3.7c1.1 1.4 2.5 4.1 3 6c0.5 2.2 0.5 4.8 0 7c-0.5 1.9-1.9 4.6-3.1 5.8c-1.2 1.3-3.8 3.3-5.9 4.3c-2.1 1-4.8 1.9-6 1.9c-1.2 0-4.3-1.3-6.8-3c-2.4-1.6-5-4-5.7-5.2c-0.6-1.3-1.2-4.2-1.2-6.6c0-2.3 0.8-6 1.9-8.2c1.1-2.2 3.3-4.7 4.8-5.5c1.5-0.8 5-1.4 7.7-1.4zm-7.8 10c-0.9 1.3-1.6 3.6-1.6 5.1c0 1.8 1 3.9 2.9 5.8c2.1 2 4 3 6.1 3c2.3 0 4.1-1 6.5-3.5c2.1-2.1 3.4-4.5 3.4-6c0-1.5-1.3-3.9-3.5-6c-1.9-2-4.4-3.5-5.7-3.5c-1.2 0.1-3.2 0.7-4.4 1.4c-1.2 0.7-2.9 2.4-3.7 3.7zm103.4-738.1c0.5 0 1.2 0.6 1.5 1.3c0.3 0.6-0.8 4.2-2.5 8c-2.9 6.3-3 6.8-1.3 8.1c1 0.7 3.7 2.5 6 4c3.7 2.2 4.1 2.9 3.2 4.6c-0.9 1.9-1.1 1.9-14.5-4.8l-3.5 6c-1.9 3.3-4.2 6.4-5.2 6.9c-1.3 0.6-1.9 0.5-2.3-0.6c-0.2-0.8 1.1-4.5 6.3-15l-6.4-3.7c-3.5-2.1-6.4-4.5-6.4-5.3c0-0.8 0.7-1.7 1.5-2c0.9-0.3 4.4 1 14 6.3l2.5-4.6c1.4-2.5 3.4-5.6 4.4-6.9c1-1.3 2.2-2.3 2.7-2.3zm-226.8 111c2.1 0 5.2 0.6 7 1.3c1.8 0.7 4.2 2.7 5.5 4.3c1.2 1.6 2.4 4.5 2.8 6.4c0.3 2 0 5.2-0.7 7.4c-0.8 2.2-2.9 5.2-4.9 6.8c-1.9 1.5-5 3.1-7 3.4c-2.5 0.5-4.7 0.1-8-1.5c-2.4-1.2-5.3-3.4-6.4-4.9c-1.1-1.5-2.1-4.5-2.4-6.7c-0.3-2.7 0.2-5.4 1.6-8.5c1.4-2.9 3.2-5.1 5.4-6.2c1.8-1 5-1.8 7.1-1.8zm-6 8.4c-1.8 1.6-2.3 3.2-2.3 6.9c0 4.2 0.4 4.9 3.3 6.7c1.8 1.1 4.5 2 6.1 2c1.8 0 3.8-1.1 5.7-3c2.1-2.2 2.9-4 2.9-6.5c0-2.2-0.8-4.4-2.2-6c-1.2-1.4-3.6-2.7-5.3-3c-1.6-0.2-3.6-0.2-4.5 0.2c-0.8 0.3-2.5 1.5-3.7 2.7zm366.5 30.6c1.8 0 4.7 0.6 6.5 1.3c1.8 0.7 4.2 2.4 5.5 3.8c1.2 1.3 2.7 4.2 3.3 6.4c1 3.4 0.8 4.7-0.9 8.5c-1.2 2.6-3.7 5.7-5.9 7.2c-2 1.5-4.9 2.8-6.3 2.8c-1.3 0-4.2-0.6-6.3-1.3c-2.1-0.6-4.9-2.3-6.3-3.7c-1.3-1.4-2.8-4.1-3.2-6c-0.4-1.9-0.4-5.1 0-7c0.5-1.9 1.5-4.5 2.3-5.7c0.9-1.3 3-3.2 4.8-4.3c1.8-1.1 4.7-2 6.5-2zm-7.6 10.6c-0.7 1.6-1.1 4.3-0.7 6.2c0.3 1.9 1.7 4 3.3 5.2c1.5 1.2 4.2 2.1 6.1 2c2.3 0 4.2-0.9 6.2-3c1.9-2 2.9-4 2.9-6c0-2.1-1-4.1-3.5-6.5c-1.9-1.9-4.2-3.5-5.2-3.5c-1 0.1-3.1 0.7-4.8 1.4c-1.6 0.7-3.6 2.6-4.3 4.2zm-268.4 49.4c1.4 0 2.4 0.7 2.7 2c0.3 1.1 0.3 2.8 0.1 3.8c-0.3 0.9-1.5 2-2.8 2.4c-1.5 0.5-2.8 0.2-4-1c-1.2-1.1-1.6-2.4-1.2-3.7c0.4-1.1 1.2-2.3 1.8-2.7c0.6-0.4 2.2-0.8 3.4-0.8zm110.7 12.1c1.7 0 4.4 0.8 6 1.8c1.7 1 3.8 3.5 4.8 5.5c1 2 1.7 4.3 1.7 5.1c0 0.8-0.6 2.7-1.3 4.3c-0.8 1.5-2.8 3.9-4.5 5.5c-1.8 1.5-3.9 2.7-4.9 2.7c-1-0.1-2.3 1.1-3 2.7c-0.6 1.5-1.8 5.5-2.7 8.8c-0.8 3.3-1.4 6.1-1.3 6.2c0.1 0 4.1-0.8 8.7-1.8c6.1-1.4 12.5-1.9 22.5-2c10.7 0 15.8 0.5 21.5 1.9c4.2 1.1 11.1 3.5 15.5 5.3c4.4 1.8 11.4 5.5 15.5 8.2c4.2 2.7 11.2 8.6 15.6 13.1c4.4 4.4 10.1 11.5 12.7 15.6c2.6 4.1 6 10.6 7.7 14.5c1.6 3.9 3.9 10.6 5 15c1.2 4.4 2.4 12.7 2.7 18.5c0.4 6.2 0.1 14.2-0.6 19.5c-0.6 5-2.5 12.9-4.1 17.8c-1.6 4.8-4.2 11.1-5.6 14c-1.5 2.8-4.7 8.3-7.3 12.2c-2.5 3.8-8 10.4-20.1 22.5l1 5c0.6 2.8 1 7 1 9.5c0 2.5-0.9 8.7-4.1 23l9.4 17c5.2 9.4 10.9 19.9 12.7 23.5c1.8 3.6 5.3 8.8 7.8 11.5c2.5 2.8 5.4 6.8 6.4 9q1.8 4 1.8 11c0 4.6-0.6 8.3-1.8 11c-1 2.2-3.2 5.5-4.8 7.4c-1.6 1.8-4.9 4.5-7.4 5.9c-2.9 1.7-6.5 2.7-10.5 3c-3.3 0.2-7.9-0.1-10.2-0.7c-2.3-0.6-6.2-2.6-8.5-4.4c-2.3-1.8-5.6-5.3-7.3-7.7c-2-2.9-3.5-6.9-4.3-11c-0.6-3.6-1.6-7-2.1-7.5c-0.6-0.6-1.9 2.2-3.6 7.5c-1.5 4.7-3.5 10.2-4.6 12.3c-1 2-3.5 5.6-5.6 7.8c-2.1 2.3-5.6 5.3-7.8 6.7c-2.3 1.4-7.6 3.2-21 5.8l-13 44.5c-7.1 24.4-13.9 46.7-14.9 49.4c-1.1 2.8-3.8 6.9-6 9.3c-2.5 2.6-5.8 4.8-8.6 5.8c-2.4 0.8-5.8 1.4-7.5 1.4c-1.6 0-4.9-0.6-7.2-1.5c-2.3-0.8-5.9-2.7-7.8-4.2c-2-1.6-4.7-5-6.1-7.8c-1.3-2.7-2.4-6.5-2.4-8.2c0-1.8 1.2-7.7 2.5-13c1.4-5.4 6.8-24.7 12-42.8c5.3-18.1 9.6-33.3 9.5-33.7c0-0.5-3.2-1.5-7.2-2.4c-7-1.6-7.3-1.6-8.5 0.2c-0.7 1.1-1.2 2.2-1 2.6c0.1 0.4 2.7 2.2 5.7 4c3 1.8 5.6 4.1 5.8 5.1q0.2 1.7-1.8 1.7c-1.1 0-4.2-1.1-7-2.5c-2.7-1.4-5.4-2.5-6-2.5c-0.5 0-2.5 3.3-4.4 7.3c-1.9 3.9-7.3 20-12.1 35.7c-4.8 16-9.6 30.1-11 32.3c-1.4 2-4.6 5.1-7.2 6.7c-2.6 1.7-6.6 3.3-8.8 3.6c-2.4 0.4-6.1 0-9.5-0.9c-3.9-1.2-6.6-2.8-9.7-5.9c-2.3-2.4-4.9-6-5.7-8c-0.9-2.1-1.6-5.3-1.6-7c0-1.8 1.8-10 4-18.3c2.2-8.2 8.4-30.5 23.7-84l-5-3c-2.8-1.6-7-5.4-9.4-8.2c-2.3-2.9-4.6-6.7-5-8.3c-0.4-1.7-1.4-3-2.3-3c-0.8 0-7.8 3-15.5 6.6c-7.7 3.7-19.1 8.7-25.5 11.1c-6.3 2.5-16.6 6-23 7.9c-6.3 2-16.2 4.7-22 6c-5.7 1.4-16.3 3.4-23.5 4.5c-7.1 1.1-19.9 2.2-28.5 2.5c-11.2 0.4-19.2 0.2-29-1c-7.4-0.9-20.2-3-28.5-4.7c-8.2-1.7-21.7-5-30-7.4c-8.2-2.4-21-6.7-28.5-9.5c-7.4-2.8-18.4-7.3-24.5-10c-6-2.8-16.4-8-23-11.6c-6.6-3.7-17.1-10.1-23.5-14.2c-6.3-4.1-15.1-10.2-19.5-13.6c-4.4-3.3-13.3-10.8-19.9-16.6c-6.5-5.8-15.8-14.8-20.7-20c-4.8-5.2-12.5-14.2-17.1-20c-4.5-5.8-11.8-16.1-16.2-23c-4.4-6.9-11.6-19.9-16.2-29c-4.5-9.1-11-23-14.4-31c-3.5-8-8.6-21-11.5-29c-2.9-8-6.1-17.1-7.1-20.2c-1.5-4.7-1.6-6-0.6-7c0.9-0.9 1.8-1 2.9-0.3c0.8 0.6 4.1 8.4 7.3 17.5c3.1 9.1 8.3 22.8 11.5 30.5c3.2 7.7 9.7 22.1 14.5 32c4.9 9.9 11.8 23 15.5 29c3.7 6 10.6 16.2 15.3 22.5c4.8 6.3 12.7 16 17.7 21.4c5 5.5 14.4 14.9 21 20.9c6.6 6 17.2 14.8 23.5 19.6c6.4 4.8 16.8 11.9 23.3 15.9c6.5 3.9 16.8 9.9 23 13.1c6.2 3.3 17.5 8.6 25.2 11.9c7.7 3.3 20.3 8 28 10.6c7.7 2.6 21.2 6.4 30 8.6c8.8 2.1 21.9 4.9 29 6.2c11 1.9 16.6 2.2 36 2.2c13.4 0 26.4-0.5 31-1.2c4.4-0.7 12.8-2.2 18.5-3.4c5.8-1.1 16.6-3.8 24-6c7.5-2.2 20.1-6.4 28-9.5c8-3.1 20.2-8.3 27-11.5c6.9-3.3 13.3-6.7 14.3-7.6c1-0.9 1.8-3 1.8-4.7c0-1.6 0.6-5.8 1.2-9.2c0.7-3.4 1.1-6.3 1-6.3c-0.1 0-3 1.7-6.4 3.8c-5.4 3.2-7.1 3.7-13.8 4.1c-5.9 0.3-8.5-0.1-12.1-1.6c-2.4-1.1-6-3.3-7.8-4.9c-1.9-1.6-4.6-4.9-6-7.4c-1.7-3-2.7-6.5-3-10.5c-0.2-3.3 0.1-7.8 0.7-10c0.6-2.2 2.4-5.9 4.1-8.2c1.7-2.4 5.2-5.7 7.8-7.3c2.6-1.7 6.3-3.3 8.2-3.6c2-0.3 13.9-6.1 49.5-25.3l3.6-10.3c1.9-5.7 5.1-12.5 6.9-15.3c1.9-2.7 5-6.7 10-12.5l-1.4-5.7c-0.8-3.2-2-9.8-2.6-14.8c-0.7-5.4-0.9-12.4-0.5-17.5c0.4-4.7 1.8-12.8 3.1-18c1.4-5.2 4.8-14.2 7.5-20c2.8-5.8 6.8-12.7 8.8-15.5c2.1-2.7 6.9-8.1 10.7-11.9c3.8-3.8 9.6-8.8 12.9-11.2c3.3-2.3 8.7-5.7 18-10.5l5.4-21.4l-2.4-2.7c-1.4-1.6-2.9-4.6-3.5-6.8c-0.8-3.3-0.6-4.7 1-8c1.3-2.5 3.3-4.5 5.3-5.5c1.8-0.8 4.6-1.4 6.2-1.4zm-7.6 11c0.1 1 0.7 2.9 1.3 4.2c0.6 1.2 1.6 2.5 2.2 2.9c0.6 0.4 2.4 0.8 3.9 0.8c1.5 0 3.6-0.9 4.7-2c1.1-1.1 2.1-3 2.1-4.2c0-1.3-1.1-3.5-2.5-5c-1.4-1.6-3.4-2.8-4.4-2.8c-1 0-3.1 0.9-4.6 2.1c-1.5 1.1-2.7 2.9-2.7 4zm10.6 36.1c-3.8 1.1-9.4 3-12.5 4.3c-3 1.3-8.4 4-12 6.1c-3.5 2.1-8.9 5.9-12 8.4c-3 2.6-8.5 8.4-12.3 13.1c-4.2 5.1-8.7 12.3-11.6 18.4c-2.7 5.5-5.9 13.8-7.2 18.5c-2 7.3-2.3 10.7-2.2 24c0.1 13.8 0.4 16.5 2.7 24.5c1.5 5 4.3 12.4 6.3 16.5c1.9 4.1 5.6 10.4 8.1 14c2.6 3.6 7.2 8.9 10.2 11.8c3 3 8.9 7.7 13 10.5c4.2 2.8 11.8 6.7 17 8.8c5.3 2.1 12 4.3 15 5c3.6 0.7 11.1 1 21 0.6c13.4-0.4 16.6-0.8 23.5-3.2c4.4-1.4 10.5-3.9 13.5-5.4c3.1-1.5 8.2-4.5 11.5-6.6c3.3-2.2 9.3-7.4 13.4-11.5c4.1-4.1 9.8-11.1 12.7-15.5c2.9-4.4 6.6-11.4 8.2-15.5c1.7-4.1 3.8-10.2 4.7-13.5c0.9-3.3 1.9-11.6 2.2-18.5c0.4-8.2 0.2-15.2-0.6-20.5c-0.7-4.4-2.3-10.9-3.5-14.5c-1.3-3.6-3.9-9.6-5.8-13.5c-1.9-3.8-5.2-9.2-7.3-12c-2-2.7-6-7.4-8.8-10.3c-2.9-3-7.9-7.3-11.2-9.7c-3.3-2.3-9.2-5.9-13.2-7.9c-4-2-11.2-4.7-16-6.1c-6.5-1.9-11.8-2.7-20.3-2.9c-6.3-0.2-13.3-0.2-15.5 0.1c-2.2 0.2-7.1 1.3-11 2.5zm-81.1 147.3c-1.3 3.3-2.4 6.8-2.4 7.8c0 1.4 2.1 0.6 11-4l10.9-5.8c-4.9-11.2-6.9-14.5-7.6-14.5c-0.7 0-3.1 2.4-5.3 5.3c-2.3 2.8-5.2 7.9-6.6 11.2zm1.1 14.2c-11.5 6.3-26.8 14.8-34 18.8c-7.1 4-14.8 8.6-17 10.2c-3 2.2-4.2 4-5.2 7.6c-0.7 2.6-1 6.2-0.6 8c0.3 1.7 1.7 5.1 3 7.5c1.4 2.5 4 5.2 6.6 6.7c2.9 1.7 5.8 2.5 9 2.5c3.5 0 6.7-1 12.5-3.9c7.2-3.6 7.8-4.1 9.1-8.2c0.7-2.4 2.9-8.4 4.9-13.4c1.9-5 5.4-11.9 7.7-15.5c2.3-3.6 6.5-9 9.2-12c2.8-3 8.5-7.7 12.7-10.5l7.6-5l-4.6-4.3zm12.1 9.6c-3.3 2.9-8.1 8.4-10.7 12.3c-2.6 3.8-6.2 11-8.1 15.9c-1.9 5-3.8 9.9-4.1 11c-0.5 1.6 0.7 3 7.1 7.7c4.3 3.1 11.6 8 16.3 10.9c4.7 2.9 12.1 6.8 16.5 8.6c4.4 1.9 11.6 4.8 16 6.4c4.4 1.6 11.1 3.8 15 4.9c3.8 1.1 12.4 2.9 19 3.9c6.6 1.1 17.6 2.3 24.5 2.7c6.9 0.4 16.1 0.3 20.5-0.1c5.1-0.5 8.5-1.4 9.5-2.4c0.9-0.9 2.2-4.5 3-8.1c0.9-4 1.5-11.5 1.4-19.5c0-7.4-0.6-14.9-1.3-17.5c-0.7-2.5-2.7-8-4.5-12.3c-3-7.7-3.2-7.9-6.1-7.4c-1.7 0.3-7.5 1.1-13 1.8c-7.8 1-12.6 1-22 0.2c-8.5-0.8-14.6-2.1-21-4.3c-5-1.7-11.9-4.7-15.5-6.7c-3.6-1.9-9-5.5-12-7.8c-3-2.4-6.9-5.7-8.5-7.5c-1.7-1.7-3.7-3.5-4.6-4c-1.1-0.6-3.1 0.2-6.5 2.6c-2.7 1.8-7.6 5.7-10.9 8.7zm133.3 9.8c0.1 0.5 1.5 3.5 3.1 6.7c1.7 3.1 3.9 7.1 4.9 8.7c1.1 1.7 2.2 2.6 2.5 2c0.3-0.5 1-4.4 1.6-8.5c0.7-5 0.7-8.8 0.1-11.2c-0.6-2.1-1.6-3.8-2.3-3.8c-0.6 0-3.2 1.2-5.6 2.6c-2.4 1.4-4.3 2.9-4.3 3.5zm-8.7 10.7c1.7 3.7 4 10.1 5.1 14.2c1.5 5.4 2.1 10.8 2.1 19.5c0.1 10.3-0.3 13.6-2.8 23.2l-3 11.2c8.7 14.1 11.4 17.3 14.1 18.9c3.3 1.9 4.8 2.2 9.6 1.8c3.2-0.3 7-1.2 8.5-2c1.6-0.8 4-2.7 5.5-4.3c1.5-1.5 3.1-4 3.7-5.5c0.6-1.6 1.1-4.1 1.1-5.8c0-1.6-1.2-5.6-2.6-8.7c-1.4-3.2-5.5-11.2-9.1-17.8c-3.6-6.6-11.8-21.1-18.2-32.3c-6.4-11.1-12.1-20.2-12.6-20.1c-0.6 0.1-1.8 0.3-2.8 0.5c-1.5 0.4-1.4 1.1 1.4 7.2zm-208.6 8c-1.6 2.2-3.6 5.7-4.2 7.8c-0.7 2.2-1.3 5.3-1.3 6.9c0 1.7 1.1 5.3 2.3 8c1.3 2.8 3.9 6.3 5.8 7.9c1.8 1.6 5 3.6 6.9 4.4c2.4 1 5.2 1.2 8.7 0.8c2.9-0.3 7.7-1.8 10.5-3.2l5.3-2.7c-8.5-2.9-12.4-4.8-14.2-6c-1.8-1.2-4.7-4.4-6.5-7.2c-3.2-4.8-3.3-5.4-3.2-14.2c0.1-5.1 0.1-9.3 0-9.2c-0.1 0-1.7 0.7-3.6 1.4c-1.9 0.8-4.8 3.2-6.5 5.3zm58.6 37c0.5 12.3 0.9 14.6 3.8 22.2c1.7 4.7 4.3 10.5 5.8 13c1.4 2.5 4.3 6.8 6.4 9.5c2 2.8 7 7.6 11 10.9c4.1 3.2 10.5 7.3 14.4 9.2c3.8 1.8 11 4.3 16 5.5c7.5 1.8 10.9 2 20.5 1.6c7.7-0.4 13.8-1.3 18.5-2.7c3.8-1.2 9.5-3.5 12.5-5c3-1.5 8.2-4.9 11.5-7.4c3.3-2.6 8-7 10.5-9.9c2.5-2.8 6.6-8.7 9.2-13.2c2.6-4.4 4.7-8.1 4.5-8.2c-0.1-0.1-10.1-0.7-22.2-1.2c-13.6-0.6-26.5-1.7-33.8-3c-6.4-1.2-17.9-4.2-25.5-6.7c-7.5-2.5-19.6-7.4-26.7-10.9c-7.2-3.4-17.8-9.5-23.8-13.4c-5.9-3.9-10.9-7.1-11.2-7.1c-0.3 0-0.9 0.7-1.2 1.5c-0.4 0.9-0.5 7.7-0.2 15.3zm-13.1-3.8c-1.2 3.6-2.5 9.9-2.8 14c-0.3 4.8 0 8.9 0.8 11.5c0.7 2.2 2.5 5.8 4 8c1.5 2.2 4.7 5.5 7.1 7.2c2.4 1.8 4.7 3 5.1 2.8c0.5-0.3 0.8-1.5 0.8-2.7c0-1.3-1.3-6.3-3-11.3c-1.7-4.9-3.5-12.3-4-16.2c-0.6-4-1.1-9.9-1.1-13c-0.1-3.2-0.4-6.8-0.8-8.1c-0.7-2.3-0.8-2.3-2.3-0.5c-0.8 1-2.6 4.7-3.8 8.3zm203 47.8c-2.5 1.9-7 4-10 4.9c-4.8 1.3-6.4 1.3-11.7 0.2l-6.1-1.4c2.2 5.4 4.1 8.3 5.6 9.8c1.5 1.6 4.5 3.8 6.7 5c2.6 1.3 5.9 2 9.5 2c3.5 0 6.9-0.7 9.5-2c2.2-1.1 5.5-3.8 7.3-5.9c1.8-2.1 3.7-5.7 4.3-7.9c0.6-2.2 0.8-5.9 0.5-8.2c-0.3-2.4-1.5-6.1-2.6-8.3c-1.1-2.2-2.1-4-2.3-4c-0.2 0-1.6 2.8-3.3 6.2c-2 4.4-4.2 7.2-7.4 9.6zm-51.9 3.3c-2 2.5-5.9 6.6-8.6 9c-2.8 2.5-7.4 6.4-10.3 8.7c-2.8 2.3-5.2 4.9-5.2 5.7c0 0.9 0.9 1.5 2.2 1.5c1.3 0 4.7-0.8 7.7-1.8c3.5-1.1 7.3-3.3 10.4-6.2c2.7-2.5 5.7-6.1 6.7-8c1-1.9 3-7.3 4.5-12c1.5-4.7 2.5-9.2 2.3-10c-0.3-0.9-1.5 0.4-3.3 3.5c-1.5 2.8-4.4 7.1-6.4 9.6zm-132.8 0.1c-0.6 1.8-4.2 14.5-8.1 28.2c-3.8 13.8-7 25.3-7.1 25.8c-0.1 0.4 5 2.4 11.1 4.4c6.2 2 13.8 4.1 16.8 4.9l5.5 1.3c4.5-13.4 7.1-22 8.6-27.8c1.6-5.8 2.9-11.5 2.9-12.7c0-1.7-1.7-3.4-6.8-6.7c-3.7-2.4-10.1-8-14.2-12.6l-7.6-8.2zm74.7 31.5c-5.8 0.3-11 0.9-11.6 1.2c-0.6 0.4-3.8 9.9-7.1 21.2l-6 20.5c32.2 9.2 33.3 9.4 34.5 7.7c0.7-0.9 2.4-5.3 3.7-9.7c1.3-4.4 4.7-16.2 7.5-26.3c2.7-10 5-18.5 5-18.7c0-0.3-0.6-0.5-1.2-0.4c-0.7 0-4.2 0.9-7.8 2c-3.6 1-11.2 2.1-17 2.5zm-97.7 46.9c-1.9 6.6-3.7 14.9-4 18.5c-0.5 5.3-0.2 7.2 1.6 10.7c1.3 2.6 3.6 5.1 5.9 6.4c2 1.2 5.3 2.4 7.2 2.7c1.9 0.2 5.1-0.1 7-0.7c1.9-0.6 4.8-2.1 6.4-3.3c1.7-1.3 4-4.6 5.2-7.3c1.2-2.8 3.8-10.9 5.8-18c2.1-7.2 3.9-13.8 4.2-14.8c0.3-1.4-1.3-2.3-8.8-4.7c-5.1-1.6-12-3.6-15.3-4.5c-3.3-0.9-6.7-1.9-7.6-2.1c-1-0.3-2 0.5-2.8 2.3c-0.7 1.5-2.8 8.2-4.8 14.8zm64.3 26.5c-0.8 3-1.8 8.2-2.2 11.5c-0.5 4.8-0.3 6.8 1.2 9.9c1.1 2.1 3.5 5.1 5.3 6.5c2.5 1.9 5 2.7 9 2.9c4.3 0.3 6.6-0.1 9.9-1.7c2.3-1.2 4.9-3.1 5.7-4.4c0.8-1.2 2.8-6.3 4.5-11.2c1.7-5 4.3-13.2 5.8-18.3c1.8-6.1 2.4-9.6 1.7-10.2c-0.5-0.5-7.5-2.7-15.5-5c-8-2.3-15.2-4.4-16.1-4.6c-1.4-0.4-2.3 1.4-4.7 9.3c-1.7 5.4-3.7 12.2-4.6 15.3zm-229.5-434c1 0 1.9 0.5 1.9 1.2c0 0.7-1.5 4.2-6.8 14.3l6.4 3.7c3.5 2.1 6.4 4.2 6.4 4.8c0 0.5-0.8 1.3-1.7 1.6c-1.1 0.4-4.3-0.6-8-2.5c-5.7-2.8-6.3-3-6.8-1.4c-0.3 1-2 4.1-3.8 7c-1.7 2.9-3.8 5.3-4.4 5.3c-0.7 0-1.5-0.6-1.9-1.3c-0.3-0.7 0.8-4.2 5.5-14.2l-2.3-2c-1.3-1.1-3.7-2.8-5.5-3.8c-1.8-1-3.1-2.5-3.1-3.7c0-1.1 0.6-2 1.3-2c0.6 0 4 1.3 7.5 3c3.4 1.6 6.1 2.6 6.1 2.2c-0.1-0.4 1.5-3.4 3.5-6.5c2.4-3.7 4.4-5.7 5.7-5.7zm689.4 12c1.1 0 3.6 0.4 5.5 0.9c1.9 0.5 5 2.5 6.8 4.5c1.7 2 3.5 5 3.8 6.8c0.4 1.8 0.1 4.8-0.5 6.8c-0.6 1.9-2.5 5-4.3 6.8c-2.4 2.4-4.5 3.4-7.8 3.8c-3.3 0.5-5.5 0.1-8.4-1.3c-2.1-1-4.8-3.2-6-4.8c-1.5-2.2-2.1-4.6-2.1-8.5c0-4.1 0.6-6.4 2.2-8.6c1.2-1.8 3.7-3.9 5.5-4.8c1.8-0.9 4.2-1.6 5.3-1.6zm-6.8 11.1c-1.2 1.6-1.6 3.4-1.2 5.4c0.3 1.6 1.6 4 2.8 5.2c1.6 1.7 3.3 2.3 6.3 2.3c3.2 0 4.8-0.7 6.8-2.8c1.7-1.8 2.7-3.8 2.7-5.7c-0.1-1.7-0.8-4-1.6-5.3c-0.8-1.2-2.8-2.9-4.5-3.7c-1.6-0.9-3.1-1.5-3.2-1.5c-0.2 0-1.6 0.8-3.3 1.9c-1.7 1-3.8 2.9-4.8 4.2zm-234.3 17.1c1.2 0.1 2.5 1.4 3.1 3c0.8 2.2 0.7 3.1-0.7 4.5c-1.4 1.4-2.3 1.6-4.5 0.7c-1.6-0.5-2.9-1.9-3.1-3c-0.2-1 0.4-2.7 1.4-3.7c0.9-1 2.6-1.7 3.8-1.5zm180.6 50.8c0.3 0 1.5 0.6 2.8 1.5c1.2 0.8 2.2 2.3 2.2 3.2c0.1 1-0.8 2.7-2 3.8c-1.9 1.8-2.2 1.8-4.5 0.5c-1.6-1-2.6-2.5-2.7-4.2c-0.1-1.8 0.5-3.1 1.8-3.8c1-0.5 2.1-1 2.4-1zm-76.4 5c0.8 0 1.4 0.6 1.4 1.5c0 0.8-1.1 4.1-2.5 7.2c-1.4 3.2-2.5 6.3-2.5 7c0 0.7 2.5 2.6 5.5 4.3c3 1.6 5.5 3.6 5.5 4.5c0 0.8-0.4 1.7-1 2c-0.5 0.2-4-0.9-7.7-2.5c-3.8-1.7-6.8-2.9-6.9-2.8c0 0.2-1.7 3.1-3.7 6.5c-2 3.5-4.4 6.3-5.2 6.3c-0.8 0-1.7-0.5-2-1c-0.3-0.6 0.9-4.1 2.5-7.8c1.7-3.7 3.1-7.1 3-7.5c0-0.4-2.2-1.9-5-3.2c-2.7-1.4-5.4-3.4-6-4.5c-0.7-1.5-0.6-2.2 0.3-2.6c0.6-0.4 4.2 0.7 14.7 5.6l1.6-3.3c0.9-1.8 2.7-4.7 4.1-6.5c1.3-1.8 3.1-3.2 3.9-3.2zm-584.1 10c1.1-0.1 2.6 0.5 3.3 1.2c0.7 0.7 1.2 2.2 1.2 3.3c0 1.1-0.5 2.5-1.2 3.2c-0.6 0.7-2.1 1.3-3.2 1.3c-1.2 0-2.7-0.6-3.4-1.3c-0.7-0.7-1.3-2.2-1.4-3.3c-0.1-1.1 0.4-2.6 1.2-3.2c0.8-0.7 2.3-1.2 3.5-1.2zm502.5 7c0.8 0 3.3 0.6 5.4 1.2c2.1 0.7 5.2 2.7 6.7 4.5c1.8 2 3.1 4.9 3.5 7.5c0.5 3.1 0.1 5.3-1.2 8.2c-1.1 2.1-3.2 4.8-4.9 5.9c-1.6 1.1-4.8 2.2-7 2.5c-2.6 0.3-5.3-0.2-7.9-1.5c-2.2-1-5-3.4-6.3-5.3c-1.3-2.1-2.3-5-2.3-7c0-2 0.9-5.3 1.9-7.5c1.4-2.8 3.2-4.7 6.3-6.2c2.4-1.2 5-2.2 5.8-2.3zm-7.3 11.6c-0.9 1.9-1.7 4-1.7 4.9c0 0.8 0.5 1.5 1 1.5c0.6 0 1 0.6 1 1.5c0 0.8 1.2 2.4 2.8 3.6c2 1.5 3.6 1.9 6.2 1.5c2-0.3 4.5-1.7 5.8-3.1c1.4-1.6 2.2-3.8 2.2-6c0-2.6-0.8-4.3-3-6.5c-1.9-2-4-3-5.7-3c-1.6 0.1-3.7 0.6-4.8 1.2c-1.1 0.5-2.8 2.5-3.8 4.4zm-436.2 41.4c1.7 0 4.9 0.9 7.3 2c3.3 1.5 4.7 3 6.4 6.7c1.5 3.5 1.9 5.7 1.4 8.3c-0.3 1.9-1.5 4.8-2.5 6.5c-1 1.6-3.6 3.8-5.7 4.8c-2.5 1.3-5.3 1.8-7.9 1.5c-2.2-0.2-5.7-1.6-7.7-3.1c-2.5-1.8-4.2-4.1-4.9-6.5c-0.6-2-0.9-5.5-0.6-7.7c0.4-2.2 1.4-5.1 2.4-6.4c1-1.3 3.4-3.2 5.3-4.3c1.9-1 4.9-1.8 6.5-1.8zm-7.8 11.1c-1.2 1.6-1.6 3.4-1.2 5.4c0.3 1.6 1.6 4 2.8 5.2c1.6 1.7 3.3 2.3 6.3 2.3c3.2 0 4.8-0.7 6.8-2.8c1.7-1.8 2.7-3.8 2.7-5.7c-0.1-1.7-0.8-4-1.6-5.3c-0.8-1.2-2.8-2.9-4.5-3.7c-1.6-0.9-3.1-1.5-3.2-1.5c-0.2 0-1.6 0.8-3.3 1.9c-1.7 1-3.8 2.9-4.8 4.2zm577.4 178.9c0.5 0 1.2 0.8 1.5 1.7c0.4 1 0 3.1-0.7 4.7c-1.3 2.7-1.2 3 1.3 5c1.6 1.1 2.8 2.6 2.8 3.3c0 0.7-0.6 1.5-1.2 1.8c-0.7 0.3-2.6 0.1-4.3-0.5c-2.7-1-3.2-0.8-5.5 2.1c-1.5 1.9-3 2.9-3.7 2.5c-0.7-0.3-1.3-1.3-1.3-2.1c0-0.9 0.7-2.9 1.5-4.5c1.5-3 1.4-3.1-1.5-4.5c-1.6-0.9-3-2.2-3-3c0-0.9 0.5-1.8 1-2c0.6-0.3 2.6 0.1 4.5 1c3.3 1.4 3.5 1.4 4-0.5c0.3-1.1 1.2-2.7 2.1-3.5c0.8-0.9 2-1.5 2.5-1.5zm-624.1 4c1.4 0 4.4 0.9 6.8 2c3.1 1.5 4.7 3.1 6.2 6.2c1.1 2.4 2 5.4 2 6.8c0 1.3-1 4.4-2.2 6.8c-1.4 2.7-3.7 5.2-5.8 6.3c-1.9 1-5 1.9-6.7 1.9c-1.8 0-4.8-0.7-6.5-1.5c-1.8-0.8-4.4-2.6-5.8-4.1c-2.1-2.2-2.5-3.5-2.5-8.9c0-5.3 0.4-7 2.5-9.7c1.4-1.8 4.1-3.8 6-4.5c1.9-0.7 4.6-1.3 6-1.3zm-10.1 14.5c0.1 0.8 0.8 2.9 1.6 4.7c0.8 1.8 2.7 3.9 4.2 4.6c1.6 0.8 4 1.1 5.6 0.8c1.5-0.4 3.8-1.9 5.2-3.4c1.6-1.7 2.5-3.9 2.5-6c0-2.3-0.9-4.1-3-6.2c-2.1-2.2-3.9-3-6.4-3c-2.6 0-4.1 0.8-6.6 3.5c-1.8 1.9-3.2 4.2-3.1 5zm450.9-5.5c1.7 0 5.1 0.8 7.3 1.7c2.3 1 5 3.1 6 4.8c1.1 1.6 2 4.8 2.1 7c0.1 2.3-0.7 5.6-1.9 8c-1.1 2.2-3.1 4.8-4.4 5.8c-1.3 0.9-4.2 2-6.4 2.3c-3 0.4-5.1-0.1-8.4-1.8c-2.4-1.3-5.2-3.5-6.3-4.8c-1.4-1.8-1.9-4.1-1.9-8c0.1-4 0.7-6.5 2.4-9c1.2-1.9 3.6-4 5.2-4.7c1.7-0.7 4.5-1.3 6.3-1.3zm-7.8 15.6c0.4 3.4 1.2 5.2 3 6.6c1.9 1.5 3.4 1.8 6 1.3c1.9-0.3 4.6-1.4 5.8-2.3c1.8-1.3 2.4-2.8 2.5-6c0.2-3.3-0.3-4.7-2.3-6.7c-1.4-1.4-3.9-2.8-5.6-3.1c-2.7-0.6-3.8-0.1-6.5 2.4c-3.1 2.9-3.3 3.5-2.9 7.8zm113.5-8.6c1.1-0.1 2.6 0.5 3.3 1.2c0.7 0.7 1.2 2.2 1.2 3.3c0 1.1-0.5 2.5-1.2 3.2c-0.6 0.7-2.1 1.3-3.2 1.3c-1.2 0-2.7-0.6-3.4-1.3c-0.7-0.7-1.3-2.2-1.4-3.3c-0.1-1.1 0.4-2.6 1.2-3.2c0.8-0.7 2.3-1.2 3.5-1.2zm-117 54.2c1.7 0.2 2 0.9 1.8 4c-0.2 2.1 0.2 4 0.7 4.3c0.6 0.2 1 1.4 1 2.5c0 1.6-0.7 2-3.2 2c-1.8 0-4.1 0.8-5 1.7c-1.1 1.1-2.4 1.5-3.3 1c-1.1-0.5-1.3-1.6-0.9-4c0.4-2.3 0.1-3.7-1-4.7c-0.9-0.9-1.7-2.1-1.6-2.8c0-0.8 1.2-1.1 3.1-1c1.9 0.2 3.6-0.4 4.7-1.5c0.9-1 2.5-1.7 3.7-1.5zm-37 30.8c1.1-0.1 2.6 0.5 3.3 1.2c0.7 0.7 1.2 2.2 1.2 3.3c0 1.1-0.5 2.5-1.2 3.2c-0.6 0.7-2.1 1.3-3.2 1.3c-1.2 0-2.7-0.6-3.4-1.3c-0.7-0.7-1.3-2.2-1.4-3.3c-0.1-1.1 0.4-2.6 1.2-3.2c0.8-0.7 2.3-1.2 3.5-1.2zm-313.5 21c0.8-0.1 2.4 0.8 3.5 2c1.6 1.7 1.8 2.4 0.9 3.8c-0.6 0.9-1.9 2.1-2.8 2.7c-1.1 0.6-2.2 0.6-3.3-0.1c-1-0.6-1.9-2.4-2.1-4c-0.2-1.7 0.3-3.3 1-3.7c0.7-0.4 2-0.7 2.8-0.7zm581.3-782c2.6 0 6.4 0.7 8.5 1.5c2 0.9 5.2 2.7 7 4c1.7 1.4 4.1 4.3 5.2 6.5c1.1 2.2 2.3 5.9 2.6 8.2c0.4 2.5 0.1 6-0.6 8.3c-0.6 2.2-2.3 5.7-3.6 7.7c-1.3 2.1-4.3 5-6.6 6.4c-3 1.9-6.1 2.8-10.3 3.1c-4.1 0.3-7.2-0.1-9.7-1.1c-2.1-0.9-5.4-3.1-7.5-4.9c-2-1.8-4.4-5-5.4-7.2c-1-2.2-1.9-6.4-1.9-9.3c0-3.5 0.8-6.8 2.4-10c1.3-2.6 4.1-6.1 6.2-7.8c2.2-1.7 5-3.5 6.4-4.2c1.4-0.6 4.6-1.1 7.3-1.2zm-15.1 15.5c-1.8 3.7-2.2 6-1.8 9c0.3 2.2 1.6 5.5 2.8 7.4c1.3 1.9 3.4 4.2 4.8 5.3c1.4 1 4.3 2.3 6.5 2.8c2.7 0.6 5.2 0.5 7.5-0.2c1.9-0.6 4.7-1.9 6.3-3c1.5-1 3.6-3.6 4.7-5.8c1.1-2.2 2-5.9 2-8.3c0-3-0.8-5.6-3-9c-1.6-2.6-4.3-5.4-6-6.2c-1.6-0.9-5.6-1.5-8.7-1.5c-4.4 0-6.6 0.5-9.3 2.3c-2.1 1.4-4.5 4.4-5.8 7.2zm71.8 155.1c2.5 0.3 5.2 0.9 6 1.3c0.8 0.5 2.7 2.1 4.1 3.7c1.4 1.6 2.9 4.7 3.3 6.9c0.7 3.2 0.4 4.9-1.5 8.8q-2.4 4.9-5.9 6.8c-1.9 1-5.1 1.9-7 1.9c-1.9 0-5.5-1-8-2.3c-3.8-2-4.7-3.1-6.1-7.3c-1.5-4.4-1.5-5.5-0.3-9.4c0.8-2.5 2-5.4 2.7-6.5c0.8-1 2.9-2.5 4.8-3.2c2.1-0.8 5.2-1.1 7.9-0.7zm-9.4 10.4c-0.9 1.4-1.6 3.5-1.6 4.7c0 1.3 1.6 3.8 3.5 5.8c2.2 2.2 4.5 3.5 6.1 3.5c1.7 0 3.8-1.3 6-3.5c2.3-2.4 3.4-4.5 3.4-6.5q0-3-3-6c-1.9-1.9-4-3-5.7-3c-1.6 0-3.8 0.6-5 1.3c-1.2 0.6-2.9 2.3-3.7 3.7zm-397.1 168c0.6-0.1 1.6 0.5 2.3 1.2c1 1 1 1.5 0 2.4c-0.7 0.7-5.1 2.6-9.8 4.4c-4.7 1.7-12.6 5.2-17.7 7.8c-7.3 3.7-9.5 4.4-10.5 3.4c-1-0.9-0.9-1.6 0.7-3.3c1.1-1.2 4.7-3.7 8-5.6c3.3-2 9.2-4.7 13-6.1c3.9-1.4 8.4-2.9 10-3.3c1.7-0.4 3.5-0.8 4-0.9zm-36 42.1c1.7-0.1 8 0.3 14 0.9c6.1 0.5 15.5 1.9 21 3c5.5 1 16.5 3.8 24.5 6c8 2.3 20.6 6.6 28 9.6c7.4 3 16 6.9 19 8.5c3 1.7 8.2 5 11.5 7.4c3.3 2.3 6.9 5.7 7.9 7.6c1.7 3 1.8 4 0.7 9.4c-0.6 3.3-3.9 15.2-7.2 26.5c-3.3 11.2-7.2 22.2-8.5 24.2c-1.3 2.1-3.9 4.9-5.6 6.2c-1.8 1.3-6.2 3.4-9.8 4.6c-3.6 1.2-10.5 3-15.5 4c-4.9 1-13 2.2-18 2.5c-5.3 0.4-12.7 0.2-18-0.5c-4.9-0.6-11-1.7-13.5-2.5c-2.5-0.7-7.4-2.5-11-4c-3.6-1.6-10.5-5.5-15.5-8.9c-4.9-3.3-13-9.9-17.8-14.6c-4.9-4.7-10.5-10.8-12.5-13.5c-2.5-3.5-3.7-6.5-4.2-10c-0.3-2.8-0.2-7.5 0.3-10.5c0.4-3.1 2.9-12.7 5.4-21.5c2.5-8.8 5.7-19.1 7.2-23c1.7-4.4 3.5-7.4 5.1-8.4c1.4-0.9 4.1-1.9 6-2.2c1.9-0.4 4.9-0.8 6.5-0.8zm-11.7 11c-1 1.8-4.2 11.9-7.3 22.4c-3 10.4-5.7 21.7-6.1 25c-0.5 4.9-0.3 6.8 1.6 11c1.3 3 5.2 8.1 9.8 12.9c4.3 4.3 10.9 10.4 14.7 13.5c3.9 3 10.6 7.4 15 9.7c4.4 2.3 11.4 5.2 15.5 6.5c6.6 2.1 9.4 2.4 23.5 2.3c11.2 0 18.6-0.6 24.5-1.8c4.7-1 11.2-2.8 14.5-4c3.6-1.3 7.5-3.7 10-6.1c3.8-3.8 4.4-5.2 9.2-21.5c2.9-9.7 5.9-20.2 6.7-23.5c0.9-3.3 1.6-7.5 1.6-9.3c0-2.3-0.8-4-2.7-5.7c-1.6-1.4-6.8-4.8-11.8-7.5c-4.9-2.8-14.2-7.2-20.5-9.9c-6.3-2.6-16.9-6.4-23.5-8.4c-6.6-2-17.2-4.7-23.5-6.1c-6.3-1.4-16.4-3-22.5-3.6c-6-0.6-13.7-1-17-1c-3.3 0.1-6.9 0.5-8 0.9c-1.1 0.4-2.8 2.3-3.7 4.2z" /></svg>